<svg id="visual" viewBox="0 0 900 600" width="900" height="600" xmlns="http://www.w3.org/2000/svg" xmlns:xlink="http://www.w3.org/1999/xlink" version="1.1"><rect x="0" y="0" width="900" height="600" fill="transparent"></rect><path d="M0 452L10 453.2C20 454.3 40 456.7 60 458.8C80 461 100 463 120 460.3C140 457.7 160 450.3 180 443.7C200 437 220 431 240 424.8C260 418.7 280 412.3 300 413.7C320 415 340 424 360 436C380 448 400 463 420 468.2C440 473.3 460 468.7 480 465.3C500 462 520 460 540 459.5C560 459 580 460 600 457.7C620 455.3 640 449.7 660 440.2C680 430.7 700 417.3 720 414.8C740 412.3 760 420.7 780 427.2C800 433.7 820 438.3 840 440.3C860 442.3 880 441.7 890 441.3L900 441L900 601L890 601C880 601 860 601 840 601C820 601 800 601 780 601C760 601 740 601 720 601C700 601 680 601 660 601C640 601 620 601 600 601C580 601 560 601 540 601C520 601 500 601 480 601C460 601 440 601 420 601C400 601 380 601 360 601C340 601 320 601 300 601C280 601 260 601 240 601C220 601 200 601 180 601C160 601 140 601 120 601C100 601 80 601 60 601C40 601 20 601 10 601L0 601Z" fill="#c62368"></path><path d="M0 454L10 458.5C20 463 40 472 60 474.8C80 477.7 100 474.3 120 470.8C140 467.3 160 463.7 180 457.2C200 450.7 220 441.3 240 448.3C260 455.3 280 478.7 300 481.7C320 484.7 340 467.3 360 455.2C380 443 400 436 420 429.8C440 423.7 460 418.3 480 422.8C500 427.3 520 441.7 540 441.8C560 442 580 428 600 430.7C620 433.3 640 452.7 660 461C680 469.3 700 466.7 720 462C740 457.3 760 450.7 780 447.5C800 444.3 820 444.7 840 445.8C860 447 880 449 890 450L900 451L900 601L890 601C880 601 860 601 840 601C820 601 800 601 780 601C760 601 740 601 720 601C700 601 680 601 660 601C640 601 620 601 600 601C580 601 560 601 540 601C520 601 500 601 480 601C460 601 440 601 420 601C400 601 380 601 360 601C340 601 320 601 300 601C280 601 260 601 240 601C220 601 200 601 180 601C160 601 140 601 120 601C100 601 80 601 60 601C40 601 20 601 10 601L0 601Z" fill="#d53867"></path><path d="M0 496L10 501.3C20 506.7 40 517.3 60 522.8C80 528.3 100 528.7 120 521.5C140 514.3 160 499.7 180 493.8C200 488 220 491 240 495.8C260 500.7 280 507.3 300 502.5C320 497.7 340 481.3 360 474.8C380 468.3 400 471.7 420 474.3C440 477 460 479 480 482.5C500 486 520 491 540 485.7C560 480.3 580 464.7 600 465.3C620 466 640 483 660 484C680 485 700 470 720 470.7C740 471.3 760 487.7 780 501.5C800 515.3 820 526.7 840 527.7C860 528.7 880 519.3 890 514.7L900 510L900 601L890 601C880 601 860 601 840 601C820 601 800 601 780 601C760 601 740 601 720 601C700 601 680 601 660 601C640 601 620 601 600 601C580 601 560 601 540 601C520 601 500 601 480 601C460 601 440 601 420 601C400 601 380 601 360 601C340 601 320 601 300 601C280 601 260 601 240 601C220 601 200 601 180 601C160 601 140 601 120 601C100 601 80 601 60 601C40 601 20 601 10 601L0 601Z" fill="#e34c67"></path><path d="M0 506L10 509.5C20 513 40 520 60 529.3C80 538.7 100 550.3 120 549.7C140 549 160 536 180 526.2C200 516.3 220 509.7 240 513.3C260 517 280 531 300 534.7C320 538.3 340 531.7 360 525.5C380 519.3 400 513.7 420 516.3C440 519 460 530 480 539.5C500 549 520 557 540 552.7C560 548.3 580 531.7 600 527.5C620 523.3 640 531.7 660 539.7C680 547.7 700 555.3 720 549.2C740 543 760 523 780 519.7C800 516.3 820 529.7 840 529.8C860 530 880 517 890 510.5L900 504L900 601L890 601C880 601 860 601 840 601C820 601 800 601 780 601C760 601 740 601 720 601C700 601 680 601 660 601C640 601 620 601 600 601C580 601 560 601 540 601C520 601 500 601 480 601C460 601 440 601 420 601C400 601 380 601 360 601C340 601 320 601 300 601C280 601 260 601 240 601C220 601 200 601 180 601C160 601 140 601 120 601C100 601 80 601 60 601C40 601 20 601 10 601L0 601Z" fill="#ef5f67"></path><path d="M0 557L10 555.7C20 554.3 40 551.7 60 555.2C80 558.7 100 568.3 120 572.2C140 576 160 574 180 566.3C200 558.7 220 545.3 240 539.8C260 534.3 280 536.7 300 538.7C320 540.7 340 542.3 360 545.8C380 549.3 400 554.7 420 563C440 571.3 460 582.7 480 579.7C500 576.7 520 559.3 540 550C560 540.7 580 539.3 600 536.2C620 533 640 528 660 530.7C680 533.3 700 543.7 720 548.7C740 553.7 760 553.3 780 553.3C800 553.3 820 553.7 840 553.7C860 553.7 880 553.3 890 553.2L900 553L900 601L890 601C880 601 860 601 840 601C820 601 800 601 780 601C760 601 740 601 720 601C700 601 680 601 660 601C640 601 620 601 600 601C580 601 560 601 540 601C520 601 500 601 480 601C460 601 440 601 420 601C400 601 380 601 360 601C340 601 320 601 300 601C280 601 260 601 240 601C220 601 200 601 180 601C160 601 140 601 120 601C100 601 80 601 60 601C40 601 20 601 10 601L0 601Z" fill="#fa7268"></path></svg>